{"title":"Survival.of.the.Dead.2009.DVDRip.SweSub.Xvid","uid":8378265,"size":733962748,"categoryP":"video","categoryS":"movies","magnet":"?xt=urn:btih:2daa4120d6c40d2f11370fe0d719267c2ac9777f&amp;dn=Survival.of.the.Dead.2009.DVDRip.SweSub.Xvid&amp;tr=udp%3A%2F%2Ftracker.openbittorrent.com%3A80&amp;tr=udp%3A%2F%2Fopen.demonii.com%3A1337&amp;tr=udp%3A%2F%2Ftracker.coppersurfer.tk%3A6969&amp;tr=udp%3A%2F%2Fexodus.desync.com%3A6969","seeders":2,"leechers":1,"uploader":"nordjok","files":-1,"time":1366102791,"description":"                       Swedish Hardsub\n\n &lt;a href=&quot;\nhttp://www.imdb.com/title/tt1134854/&quot; rel=&quot;nofollow&quot; target=&quot;_NEW&quot;&gt;\nhttp://www.imdb.com/title/tt1134854/&lt;/a&gt;\n\n\nGeneral\nComplete name          : Survival.of.the.Dead.2009.DVDRip.SweSub.Xvid.avi\nFormat                              : AVI\nFormat/Info                         : Audio Video Interleave\nFile size                           : 700 MiB\nDuration                            : 1h 26mn\n\nVideo\nID                                  : 0\nFormat                              : MPEG-4 Visual\nFormat profile                      : Advanced Simple@L5\nFormat settings, BVOP               : 2\nFormat settings, QPel               : No\nFormat settings, GMC                : No warppoints\nFormat settings, Matrix             : Default (H.263)\nMuxing mode                         : Packed bitstream\nCodec ID                            : XVID\nCodec ID/Hint                       : XviD\nDuration                            : 1h 26mn\nBit rate                            : 993 Kbps\nWidth                               : 720 pixels\nHeight                              : 304 pixels\nDisplay aspect ratio                : 2.35:1\nFrame rate                          : 25.000 fps\nColor space                         : YUV\nChroma subsampling                  : 4:2:0\nBit depth                           : 8 bits\nScan type                           : Progressive\nCompression mode                    : Lossy\nBits/(Pixel*Frame)                  : 0.182\nStream size                         : 612 MiB (87%)\nWriting library                     : XviD 73\n\nAudio\nID                                  : 1\nFormat                              : MPEG Audio\nFormat version                      : Version 1\nFormat profile                      : Layer 3\nMode                                : Joint stereo\nMode extension                      : MS Stereo\nCodec ID                            : 55\nCodec ID/Hint                       : MP3\nDuration                            : 1h 26mn\nBit rate mode                       : Variable\nBit rate                            : 128 Kbps\nChannel(s)                          : 2 channels\nSampling rate                       : 48.0 KHz\nCompression mode                    : Lossy\nStream size                         : 80.5 MiB (11%)\nAlignment                           : Aligned on interleaves\nInterleave, duration                : 24 ms (0.60 video frame)\nInterleave, preload duration        : 141 ms\nWriting library                     : LAME3.90.\nEncoding settings                   : -m j -V 4 -q 2 -lowpass 17.6 --abr 128\n\n","torrent":{"xt":"urn:btih:2daa4120d6c40d2f11370fe0d719267c2ac9777f","amp;dn":"Survival.of.the.Dead.2009.DVDRip.SweSub.Xvid","amp;tr":["udp%3A%2F%2Ftracker.openbittorrent.com%3A80","udp%3A%2F%2Fopen.demonii.com%3A1337","udp%3A%2F%2Ftracker.coppersurfer.tk%3A6969","udp%3A%2F%2Fexodus.desync.com%3A6969"],"infoHash":"2daa4120d6c40d2f11370fe0d719267c2ac9777f","infoHashBuffer":{"type":"Buffer","data":[45,170,65,32,214,196,13,47,17,55,15,224,215,25,38,124,42,201,119,127]},"announce":[],"urlList":[]}}